<?xml version="1.0" encoding="iso-8859-1"?>
<!-- Generator: Adobe Illustrator 18.0.0, SVG Export Plug-In . SVG Version: 6.00 Build 0)  -->
<!DOCTYPE svg PUBLIC "-//W3C//DTD SVG 1.1//EN" "http://www.w3.org/Graphics/SVG/1.1/DTD/svg11.dtd">
<svg version="1.1" id="Capa_1" xmlns="http://www.w3.org/2000/svg" xmlns:xlink="http://www.w3.org/1999/xlink" x="0px" y="0px"
	 viewBox="0 0 60 60" style="enable-background:new 0 0 60 60;" xml:space="preserve">
<path d="M6.463,13.578c0.125,0.052,0.255,0.076,0.383,0.076c0.392,0,0.765-0.232,0.924-0.617c0.205-0.495-0.017-1.061-0.496-1.286
	c1.283-0.55,1.477-1.368,1.477-1.811c0-0.447-0.197-1.279-1.521-1.828C6.72,7.903,6.134,8.144,5.922,8.653
	C5.717,9.148,5.938,9.714,6.419,9.94c-1.284,0.549-1.478,1.367-1.478,1.81C4.941,12.197,5.139,13.029,6.463,13.578z"/>
<path d="M32,31.5h-4c-0.553,0-1-0.447-1-1s0.447-1,1-1h4c0.553,0,1,0.447,1,1S32.553,31.5,32,31.5z"/>
<g>
	<path d="M1,49.5h18v-6H1V49.5z M8,45.5h4c0.553,0,1,0.447,1,1s-0.447,1-1,1H8c-0.553,0-1-0.447-1-1S7.447,45.5,8,45.5z"/>
	<path d="M1,59.5h18v-8H1V59.5z M8,53.5h4c0.553,0,1,0.447,1,1s-0.447,1-1,1H8c-0.553,0-1-0.447-1-1S7.447,53.5,8,53.5z"/>
	<path d="M1,33.5v2v6h18v-6h22v6h18v-6v-2v-6h1v-6h-2v-12h-6v2h-4v10H31v-2h12v-19H17v19h12v2H11c1.654,0,3-1.346,3-3s-1.346-3-3-3
		h-1v-1H3v7H0v6h1V33.5z M12,39.5H8c-0.553,0-1-0.447-1-1s0.447-1,1-1h4c0.553,0,1,0.447,1,1S12.553,39.5,12,39.5z M41,33.5H19v-6
		h22V33.5z M52,39.5h-4c-0.553,0-1-0.447-1-1s0.447-1,1-1h4c0.553,0,1,0.447,1,1S52.553,39.5,52,39.5z M54,11.5h2v10h-2V11.5z
		 M50,13.5h2v8h-2V13.5z M10,17.5h1c0.552,0,1,0.448,1,1s-0.448,1-1,1h-1V17.5z M5,16.5h3v5H5V16.5z M2,23.5h1h7h38h4h2h4v2H43H17H2
		V23.5z"/>
	<path d="M41,49.5h18v-6H41V49.5z M48,45.5h4c0.553,0,1,0.447,1,1s-0.447,1-1,1h-4c-0.553,0-1-0.447-1-1S47.447,45.5,48,45.5z"/>
	<path d="M41,59.5h18v-8H41V59.5z M48,53.5h4c0.553,0,1,0.447,1,1s-0.447,1-1,1h-4c-0.553,0-1-0.447-1-1S47.447,53.5,48,53.5z"/>
</g>
<g>
</g>
<g>
</g>
<g>
</g>
<g>
</g>
<g>
</g>
<g>
</g>
<g>
</g>
<g>
</g>
<g>
</g>
<g>
</g>
<g>
</g>
<g>
</g>
<g>
</g>
<g>
</g>
<g>
</g>
</svg>
